<?xml version="1.0" encoding="utf-8"?>
<!-- Generator: Adobe Illustrator 18.1.1, SVG Export Plug-In . SVG Version: 6.00 Build 0)  -->
<svg version="1.1"
	 id="Layer_1" xmlns:dc="http://purl.org/dc/elements/1.1/" xmlns:cc="http://web.resource.org/cc/" xmlns:rdf="http://www.w3.org/1999/02/22-rdf-syntax-ns#" xmlns:svg="http://www.w3.org/2000/svg" xmlns:sodipodi="http://sodipodi.sourceforge.net/DTD/sodipodi-0.dtd" xmlns:inkscape="http://www.inkscape.org/namespaces/inkscape" sodipodi:version="0.32" inkscape:version="0.44" sodipodi:docbase="C:\Dokumente und Einstellungen\Andreas\Eigene Dateien\Eigene Bilder\sonstiges\Logos\Vektor" sodipodi:docname="Quicktime-Logo.svg"
	 xmlns="http://www.w3.org/2000/svg" xmlns:xlink="http://www.w3.org/1999/xlink" x="0px" y="0px" viewBox="0 0 68 68"
	 enable-background="new 0 0 68 68" xml:space="preserve">
<g id="Layer_x0020_1">
	<path id="path10" fill="#129DED" d="M66.6,55.5l-4.6-4.6c-0.1-0.1-0.1-0.2-0.1-0.3c0-0.1,0-0.2,0.1-0.2c2.8-4.8,4.4-10.5,4.4-16.4
		c0-18.1-14.7-32.9-32.9-32.9S0.7,15.8,0.7,33.9s14.7,32.9,32.9,32.9c6.5,0,12.6-1.9,17.7-5.2c0.1,0,0.2-0.1,0.2-0.1
		c0.1,0,0.2,0,0.3,0.1l4.6,4.6c0.3,0.4,1.1,0.7,1.6,0.7h8.4c0.5,0,0.9-0.4,0.9-0.9v-8.9C67.3,56.6,67,55.9,66.6,55.5 M53.4,33.7
		c0,10.9-8.8,19.8-19.8,19.8s-19.8-8.8-19.8-19.8s8.8-19.8,19.8-19.8c4.5,0,8.7,1.5,12,4.1l5.9-5.9l3.8,3.8l-5.9,5.9
		C51.9,25.1,53.4,29.2,53.4,33.7 M45.6,18L34.7,28.9c-0.3-0.1-0.7-0.1-1.1-0.1c-2.7,0-4.9,2.2-4.9,4.9s2.2,4.9,4.9,4.9
		c2.7,0,4.9-2.2,4.9-4.9c0-0.3,0-0.6-0.1-0.8l11-11C48.3,20.3,47,19.1,45.6,18 M33.6,35.6c-1.1,0-2-0.9-2-2c0-1.1,0.9-2,2-2
		c1.1,0,2,0.9,2,2C35.6,34.7,34.7,35.6,33.6,35.6z"/>
</g>
</svg>
