<?xml version="1.0" encoding="utf-8"?>
<!-- Generator: Adobe Illustrator 18.1.1, SVG Export Plug-In . SVG Version: 6.00 Build 0)  -->
<svg version="1.1" id="Layer_1" xmlns="http://www.w3.org/2000/svg" xmlns:xlink="http://www.w3.org/1999/xlink" x="0px" y="0px"
	 viewBox="0 0 68 68" enable-background="new 0 0 68 68" xml:space="preserve">
<circle fill="#D8E7FE" cx="34" cy="34" r="26"/>
<path fill="#E83E30" d="M34,8V0C15.2,0,0,15.2,0,34h8C8,19.6,19.6,8,34,8z"/>
<path fill="#52B429" d="M60,34h8C68,15,52.8,0,34,0v8C48.4,8,60,20,60,34z"/>
<path fill="#F7C53D" d="M34,60v8c19,0,34-15.2,34-34h-8C60,48.4,48,60,34,60z"/>
<path fill="#377EEF" d="M8,34H0c0,19,15.2,34,34,34v-8C19.6,60,8,48,8,34z"/>
<g id="Arrow_3">
	<g>
		<g>
			<g>
				<polygon fill="#2A60B6" points="28,47 28,21 48,34 				"/>
			</g>
		</g>
		<g>
			<g>
				<polygon fill="#2A60B6" points="28,47 28,21 48,34 				"/>
			</g>
		</g>
	</g>
</g>
</svg>
