<?xml version="1.0" encoding="utf-8"?>
<!-- Generator: Adobe Illustrator 18.1.1, SVG Export Plug-In . SVG Version: 6.00 Build 0)  -->
<svg version="1.1" id="Capa_1" xmlns="http://www.w3.org/2000/svg" xmlns:xlink="http://www.w3.org/1999/xlink" x="0px" y="0px"
	 viewBox="0 0 68 68" enable-background="new 0 0 68 68" xml:space="preserve">
<g>
	<path fill="none" d="M8,51.1c-0.3,0.1-0.5,0.2-0.7,0.3l0.1,0.1l0.9,0.4v-1L8,51.1z"/>
	<path fill="#FFFFFF" d="M51.7,47.1l0.9,3.3v0.1c-0.5,7-9.5,9.5-17.7,9.5c-6.8,0-15.6-1.7-18.6-5.6c-0.9-1.1-1.2-2.4-0.9-3.7
		c0.2-0.8,0.5-2,0.9-3.3l-8,3.6v1L30,61.8c1.2,0.7,2.4,1,3.6,1c2,0,3.5-0.9,3.5-0.9l0.4-0.2l23.2-9.4c0.1,0,0.2-0.1,0.3-0.1
		c-0.2-0.3-0.5-0.6-0.8-0.9L51.7,47.1z"/>
	<path fill="#FFFFFF" d="M33.3,51.2c7.1,0,13.2-1.7,16.4-4.6L49,44.3v-0.1c-0.7-2.6-1.3-4.6-1.7-6c-0.1,0.1-0.1,0.2-0.2,0.3
		c-1.8,2-6,3.3-10.8,3.3c-3.3,0-9.5-0.6-15.4-4.6L20,40.4l-1,3l-0.7,2.7c-0.1,0.5,0.1,0.9,0.5,1.4C20.7,49.6,26.8,51.2,33.3,51.2z"
		/>
	<path fill="#FFFFFF" d="M44.3,27.3l-2.5-8.5c-1.3,0.8-4,2.1-7.4,2.1c-2.7,0-5.4-0.8-7.9-2.3c-0.8,2.6-1.7,5.3-2.5,8.1v0.1
		c1,0.8,5.8,3,11.4,3C38.9,29.8,41.9,29,44.3,27.3z"/>
	<path fill="#FF810A" d="M63.2,47.2l-0.7-0.4l-12.8-6.4l-3.6-12.3L43,17.3v-0.1l-0.9-3L38.5,1.9C37.9,0.4,35,0,33.6,0
		c-2.3,0-3.7,0.7-3.8,1.9c0,0-1.6,5.2-3.7,12.3c-0.3,0.9-0.6,1.9-0.9,2.8c-0.1,0.4-0.2,0.8-0.3,1.1C24.5,19.2,24,21,23.1,24v0.1
		l-0.8,2.5c-1.4,4.6-2.5,9.2-4,13.2L18.1,41l-9.8,4.4l-2.3,1c-2.7,1-4.1,2.6-4.3,4.5c-0.3,2.9,2.5,4.7,3.1,5.1l3.5,1.6l15.8,7.2
		l3.4,1.6c1.9,1.1,3.9,1.6,6,1.6c3.1,0,5.5-1.2,6-1.6l3.9-1.6l19-7.6c2.8-1,3.6-2.7,3.8-3.9C66.8,50.2,63.8,47.7,63.2,47.2z
		 M24,26.7c0.8-2.8,1.7-5.5,2.5-8.1c2.5,1.5,5.2,2.3,7.9,2.3c3.4,0,6.1-1.3,7.4-2.1l2.5,8.5c-2.4,1.7-5.4,2.5-8.9,2.5
		C29.8,29.8,25,27.6,24,26.7L24,26.7z M18.3,46.1l0.7-2.7l1-3l0.9-3.2c5.9,4,12.1,4.6,15.4,4.6c4.8,0,9-1.3,10.8-3.3
		c0.1-0.1,0.1-0.2,0.2-0.3c0.4,1.4,1,3.4,1.7,6v0.1l0.7,2.3c-3.2,2.9-9.3,4.6-16.4,4.6c-6.5,0-12.6-1.6-14.5-3.7
		C18.4,47,18.2,46.6,18.3,46.1z M60.7,52.3l-23.2,9.4l-0.4,0.2c0,0-1.5,0.9-3.5,0.9c-1.2,0-2.4-0.3-3.6-1L8.3,51.9l-0.9-0.4
		l-0.1-0.1c0.2-0.1,0.4-0.2,0.7-0.3L8.3,51l8-3.6c-0.4,1.3-0.7,2.5-0.9,3.3c-0.3,1.3,0,2.6,0.9,3.7c3,3.9,11.8,5.6,18.6,5.6
		c8.2,0,17.2-2.5,17.7-9.5v-0.1l-0.9-3.3l8.5,4.2c0.3,0.3,0.6,0.6,0.8,0.9C60.9,52.2,60.8,52.3,60.7,52.3z"/>
</g>
</svg>
