<?xml version="1.0" encoding="utf-8"?>
<!-- Generator: Adobe Illustrator 18.1.1, SVG Export Plug-In . SVG Version: 6.00 Build 0)  -->
<svg version="1.1" id="Layer_1" xmlns="http://www.w3.org/2000/svg" xmlns:xlink="http://www.w3.org/1999/xlink" x="0px" y="0px"
	 viewBox="0 0 68 68" enable-background="new 0 0 68 68" xml:space="preserve">
<g>
	<g>
		<path fill="#444444" d="M0.1,34.3c-0.3-1,0.2-1.7,0.9-2.4C11.3,21.7,21.7,11.4,32,1c1.2-1.2,2.4-1.4,3.6-0.3
			C40,5,44.2,9.3,48.5,13.6c0.1,0.1,0.1,0.3,0.2,0.5c-0.1,1-0.9,1.4-1.7,1.9c-7.7,4.3-15.2,9-23.1,13c-0.4,0.2-0.7,0.4-1,0.8
			c-0.4,0.4-0.5,0.8-0.4,1.3c0.3,1.4-0.4,3,0.5,4.1c0.9,1.2,2.7,0.3,4,0.6c0.3,0.1,0.6,0.2,0.9,0.4c0.2,0.2,0.3,0.3,0.3,0.5
			c-0.2,1.9-1.4,3.2-3.5,3.7C17.6,40,10.8,38.6,4,36.6C2.5,36.2,1.2,35.5,0.1,34.3z"/>
		<path fill="#393939" d="M67.8,34.7c-0.1,0.8-0.8,1.3-1.3,1.8c-10,10-19.9,19.9-29.9,29.9c-2.1,2.1-2.9,2.1-5,0
			c-3.4-3.4-6.8-6.8-10.2-10.2c-0.5-0.5-1.3-0.8-1-1.7c0-0.9,0.7-1.3,1.3-1.7c7.2-4.6,14.4-9.2,21.6-13.8c0.7-0.5,1.4-0.8,2.3-0.6
			c1.7,0.3,3.2-0.4,4.8-0.7c5.1-0.8,10.1-2.2,15-3.9C66.3,33.5,67.4,33.2,67.8,34.7z"/>
		<path fill="#FEA418" d="M24.8,40c1.1-1,2.1-2,3.2-3c2.4-2.5,5.3-4.4,7.6-7.4c-3.7,0-7,0-10.4,0c-0.7,0-1.6,0.3-1.7-0.8
			c8.5-4.9,16.9-9.7,25.4-14.5c2.6-1.6,5.2-3.3,8-4.5c0.3,1.9-1.3,2.4-2.2,3.5C53,14.2,52,16,50.1,16.7c-2.7,2.3-5.7,4.1-7.9,6.9
			c0.2,0.3,0.5,0.3,0.7,0.5c1.3,0.6,2.7,0.6,4,1.4c5.2,1,5.5,1.4,5.4,6.8c0,1.1,0.5,2.5-1.2,3c-1-0.9-0.4-2.2-0.6-3.3
			c-0.1-0.7,0.3-1.6-0.5-2.1c-3,1.4-5.6,3.4-8.4,5.2c-6.9,4.5-14.1,8.5-20.8,13.1c-0.3,0.2-0.6,0.4-0.9,0.7c-1,0.8-2.1,1.4-3.1,2.1
			c-0.7,0.4-1.4,0.9-2.2,0.2c0.3-0.3,0.5-0.7,0.8-1.1c-0.4-0.9,0.1-1.4,0.6-2c2.3-2.4,4.6-4.7,7-7C23.5,40.4,24.1,40.3,24.8,40z"/>
		<path fill="#444444" d="M51,35c0.6-2.2,0.2-4.5,0.3-6.7c0-0.7-0.5-0.8-1-0.9c-1.4-0.5-2.7-0.9-4.1-1.4c-0.4-0.6-0.2-1.1,0.2-1.5
			c1.7-2.1,3.9-3.8,6-5.5c0.3-0.2,0.6-0.2,0.9-0.2c1.6,1,2.8,2.5,4.1,3.8c3.2,3.1,6.2,6.2,9.3,9.3c0.8,0.8,1.5,1.6,0.9,2.8
			c-0.6-0.7-1.3-0.4-1.9-0.2c-5.1,2-10.4,3.2-15.8,4.2c-1.5,0.3-3.2,1-4.7,0.2c-0.2-0.7,0.2-1.1,0.6-1.4c1.4-1,2.8-2.1,4.5-2.6
			C50.7,34.8,50.9,34.9,51,35z"/>
		<path fill="#FB9007" d="M50.7,35.2c-1.8,1.2-3.6,2.4-5.4,3.6c-7.2,4.5-14.3,9-21.5,13.5c-1.2,0.7-2.4,1.4-3.6,2.2
			c-1.9,1.3-3.9,2.5-5.8,3.8c-1,0.7-1.4,0.5-1.4-0.8c0-1.3,0.1-2.6,0-4c-0.1-1.3,0.6-2,1.5-2.6c1.9-0.6,3.3-2.1,5-3
			c2.4-0.7,4.3-2.2,6.4-3.5c7.4-4.5,14.9-8.8,22.6-12.9c0.8-0.4,1.6-1.2,2.4,0.1C50.8,32.9,51,34.1,50.7,35.2z"/>
		<path fill="#393939" d="M24.8,40c-3.2,3.3-6.3,6.6-9.5,10c-1.4-0.7-2.2-2-3.3-3c-3.6-3.5-7.1-7-10.6-10.6c-0.6-0.6-1.3-1-1.3-2
			c6.2,2.4,12.7,3.8,19.3,4.8C21.2,39.4,23.1,39.4,24.8,40z"/>
		<path fill="#FB9107" d="M53.4,18.7c-2.4,2.4-4.7,4.8-7.1,7.2c-1.3-0.5-2.7-0.7-4-1.5c2.5-2.9,5.2-5.5,8.1-8.1
			c1.3-1.2,2.6-2.3,3.7-3.7c0.9-1,1.8-2,2.7-3c0.9-0.7,1.3-0.7,1.6,0.7c0.6,3.3-1.3,5.2-3.4,7C54.4,17.8,53.9,18.3,53.4,18.7z"/>
		<path fill="#FB9007" d="M27.9,36.6c-0.2,0-0.4,0-0.6,0c-1.8-0.1-4.3,0.8-5.2-0.4c-1.1-1.3-0.3-3.8-0.2-5.7
			c0.5-0.5,1.1-0.6,1.7-0.6c3.1,0.2,6.2,0.4,9.3,0.8c0.5,0.3,0.8,0.8,0.4,1.2C31.7,33.7,30.2,35.7,27.9,36.6z"/>
		<path fill="#FDA81C" d="M27.9,36.6c1.9-1.6,3.7-3.4,5.3-5.3c-0.2-0.8-0.7-0.8-1.3-0.8c-2.7,0-5.4-0.3-8-0.4
			c-0.6,0-1.5,0.3-1.4-0.9c0.3-0.2,0.6-0.3,0.8-0.5c3.8,0.5,7.6,0.4,11.4,0.1c0.7-0.1,1.4-0.4,2.4,0.2c-2.1,2-3.8,4.1-6,5.7
			c-1.1,0.8-1.5,2.4-3.2,2.3C27.9,36.9,27.9,36.8,27.9,36.6z"/>
		<path fill="#FB8507" d="M22.5,29.3c0.6,0.7,1.5,0.5,2.3,0.5c3.2,0,6.3,0,9.4,0c0.1,0.9-0.6,1.1-1,1.5c-3.8,0.2-7.6-1-11.4-0.8
			C21.6,29.9,21.8,29.4,22.5,29.3z"/>
		<path fill="#FB8607" d="M50.7,31.3c-9.8,5.4-19.5,10.9-29.3,16.3c-0.6,0.3-1.1,0.9-1.9,0.4c6.5-4.2,13-8.4,19.6-12.6
			c3.8-2.4,7.5-5.1,11.5-7.2c0.4,0.9,0.1,1.9,0.2,2.8C50.8,31.2,50.7,31.2,50.7,31.3z"/>
		<path fill="#FB8607" d="M54.1,12.7c0.3,0.5-0.1,0.7-0.4,0.9c-3.4,3.4-6.8,6.8-10.1,10.1c-0.4,0.4-0.8,0.6-1.3,0.7
			c-0.2-0.1-0.5-0.3-0.7-0.4c-0.1-0.7,0.5-0.9,0.9-1.3c2.5-2.2,5-4.4,7.4-6.6C51.7,15.4,52.6,13.7,54.1,12.7z"/>
		<path fill="#FDA91C" d="M49.9,16.1c-2.5,3-5.5,5.4-8.4,8c-0.4-0.1-1.2-0.2-0.6-0.6C44,21,46.7,18.3,49.9,16.1z"/>
		<path fill="#FB8900" d="M50.7,35.2c0-1.3,0-2.6,0-3.9l0,0c0.1-0.2,0.2-0.2,0.3,0c0,1.2,0.1,2.5,0.1,3.7
			C50.9,35.1,50.8,35.1,50.7,35.2z"/>
		<path fill="#FB7E00" d="M51,31.3c-0.1,0-0.2,0-0.3,0c0-1,0-2,0-3C51.4,29.2,50.9,30.3,51,31.3z"/>
	</g>
</g>
</svg>
