<svg version="1.0" id="Layer_1" xmlns="http://www.w3.org/2000/svg" xmlns:xlink="http://www.w3.org/1999/xlink" x="0px" y="0px"
	 width="48px" height="46.239px" viewBox="0 0 48 46.239" enable-background="new 0 0 48 46.239" xml:space="preserve">
<path fill-rule="evenodd" clip-rule="evenodd" fill="#fff" d="M44.644,18.496h-3.866c-0.386-1.317-0.928-2.569-1.614-3.735
	l2.786-2.693c1.252-1.21,1.252-3.172,0-4.382l-2.267-2.191c-1.252-1.21-3.282-1.21-4.534,0l-2.835,2.741
	C31.182,7.635,29.968,7.167,28.7,6.82V3.083C28.7,1.38,27.272,0,25.511,0h-3.189c-1.761,0-3.189,1.38-3.189,3.083V6.82
	c-1.315,0.36-2.569,0.857-3.74,1.487l-2.91-2.814c-1.252-1.21-3.282-1.21-4.534,0L5.683,7.685c-1.252,1.21-1.252,3.172,0,4.382
	l2.911,2.814c-0.652,1.131-1.166,2.343-1.538,3.615H3.189C1.428,18.496,0,19.876,0,21.578v3.083c0,1.702,1.428,3.083,3.189,3.083
	h3.866c0.359,1.225,0.844,2.399,1.463,3.495l-2.835,2.741c-1.252,1.21-1.252,3.172,0,4.382l2.267,2.191
	c1.252,1.21,3.282,1.21,4.534,0l2.786-2.693c1.206,0.663,2.501,1.187,3.864,1.56v3.737c0,1.702,1.428,3.083,3.189,3.083h3.189
	c1.761,0,3.189-1.38,3.189-3.083v-3.737c1.315-0.36,2.569-0.857,3.74-1.487l2.711,2.621c1.252,1.21,3.282,1.21,4.534,0l2.267-2.191
	c1.252-1.21,1.252-3.172,0-4.382l-2.711-2.621c0.652-1.131,1.166-2.343,1.538-3.615h3.866c1.761,0,3.189-1.38,3.189-3.083v-3.083
	C47.833,19.876,46.406,18.496,44.644,18.496z M23.917,32.367c-5.278,0-9.567-4.146-9.567-9.248c0-5.102,4.289-9.248,9.567-9.248
	s9.567,4.146,9.567,9.248C33.483,28.221,29.194,32.367,23.917,32.367z"/>
<path fill-rule="evenodd" clip-rule="evenodd" fill="#fff" d="M23.917,18.496c2.642,0,4.783,2.07,4.783,4.624
	s-2.141,4.624-4.783,4.624s-4.783-2.07-4.783-4.624S21.275,18.496,23.917,18.496z"/>
</svg>
